# xmcd CD database file
#
# Track frame offsets:
#	150
#	20522
#	35440
#	50702
#	67440
#	87180
#	104480
#	121580
#	140992
#	156952
#	166309
#	185312
#	202362
#	210327
#	231417
#	243062
#	254027
#
# Disc length: 3548 seconds
#
# Revision: 0
# Processed by: cddbd v1.5.1PL2 Copyright (c) Steve Scherf et al.
# Submitted via: CDex 1.51
#
DISCID=010dda11
DTITLE=Burnett Thompson - Uncertain
DYEAR=1994
DGENRE=Jazz
TTITLE0=Prelude to a Kiss - Duke Ellington, Irving Gordon
TTITLE1=Over the Rainbow - Harold Arlen, E.Y.Harburg
TTITLE2=Uncertain Times, Part I - Romance, Burnett Thompson
TTITLE3=How Long Has Yhis Been Going On, George and Ira Gershwin
TTITLE4=Let's Do It (Let's Fall In Love), Cole Porter
TTITLE5=Aboard the Lucy Allen, Burnett Thompson
TTITLE6=Somebody Loves Me, Geoge Gershwin, Stephen Ballantine
TTITLE7=All of You, Cole Porter
TTITLE8=Moten Swing, Buster and Bennie Moten
TTITLE9=Uncertain Times, Part II - Precious Memory, Burnett Thompson
TTITLE10=You Do Something to Me, Cole Porter
TTITLE11=My Heart Belongs to Daddy, Cole Porter
TTITLE12=As Time Goes By, Herman Hupfeld
TTITLE13=Uncertain Times, Part III - Toccata and Chorale, Burnett Thompson
TTITLE14=Waltz in A flat, Frederic Chopin
TTITLE15=It Ain't Necessarily So, George and Ira Gershwin
TTITLE16=And So it Goes, Billy Joel
EXTD=YEAR: 1994
EXTT0=
EXTT1=
EXTT2=
EXTT3=
EXTT4=
EXTT5=
EXTT6=
EXTT7=
EXTT8=
EXTT9=
EXTT10=
EXTT11=
EXTT12=
EXTT13=
EXTT14=
EXTT15=
EXTT16=
PLAYORDER=
